<svg width="121" height="139" viewBox="0 0 121 139" fill="none" xmlns="http://www.w3.org/2000/svg">
<path d="M111.289 83.2448L110.406 83.2509L103.98 76.6847C102.112 80.7226 99.5406 84.8158 96.0242 88.7065C94.3243 90.5874 80.3388 105.604 59.2438 105.098C41.7879 104.677 24.286 93.7447 15.5442 77.9427L10.3526 83.2509L9.46889 83.2448C8.38883 83.2387 7.29956 83.2295 6.20416 83.2295C16.7133 102.818 39.0509 116.776 61.1769 117.178C79.8601 117.531 100.59 108.273 112.133 89.4061C113.354 87.4147 114.45 85.3466 115.419 83.2295C114.045 83.2295 112.661 83.2356 111.286 83.2448H111.289ZM114.753 33.5466C106.134 16.8486 90.3109 8.22958 81.5538 5.64909C79.3999 5.01701 79.3109 5.22872 68.6115 2.68505C59.9281 0.620047 56.5805 -0.822081 51.9933 0.52186C49.5815 1.22758 46.8016 2.1757 44.4206 3.01337C42.331 3.74977 39.3025 4.75619 38.4127 6.92552C16.8452 16.2656 1.54332 35.1207 0.110399 56.1144C-0.346786 62.7911 0.63202 69.2776 2.74919 75.3653C5.28672 72.8001 8.03597 70.0263 11.1381 66.9089C10.2114 63.2606 9.74198 59.4589 9.80641 55.5559C10.0856 37.6735 21.5061 21.0492 38.7104 12.2092C38.8515 12.1939 39.5634 12.915 39.7475 13.0469C42.3648 14.937 48.2253 16.5755 51.4686 17.5758C56.4823 19.1345 59.4034 18.2171 64.2544 16.8916C65.3713 16.5816 67.6971 15.6427 68.6453 15.5537C69.4093 15.4862 72.226 16.195 73.1312 16.4129C104.72 24.0899 108.31 47.6795 108.31 47.6795C108.546 49.2321 109.473 56.2156 107.745 65.0249C108.077 65.3563 108.399 65.6877 108.73 66.0098L108.921 66.1939C112.29 69.5753 115.376 72.7019 118.273 75.6414C122.397 61.8399 121.479 46.5902 114.75 33.5435L114.753 33.5466ZM47.4429 4.18548C47.4736 4.1548 47.538 3.61783 47.6853 3.38464C47.986 2.92745 48.6119 2.77403 49.1121 2.952C49.3974 3.05632 49.5908 3.36316 49.7749 3.38464C50.0909 3.41532 50.723 3.02564 50.8641 3.03791C51.0053 3.05939 51.1495 3.51658 51.0789 3.64238C50.947 3.8541 46.9243 4.92802 46.372 5.10599L46.1941 4.60585C46.2094 4.44322 47.3631 4.28367 47.4429 4.18548ZM50.993 15.1855C50.8611 15.2745 49.9559 14.8388 49.7656 14.8542C49.7073 14.8603 49.4343 15.1702 49.2072 15.2592C48.4861 15.5384 47.8326 15.3267 47.5442 14.6056C47.4859 14.4583 47.4859 14.1853 47.4337 14.1208C47.3447 13.9889 46.2125 13.8201 46.1971 13.5992C46.1971 13.5409 46.4119 13.2157 46.4119 13.0991L51.082 14.5535C51.1495 14.621 51.0298 15.0597 50.993 15.1855Z" fill="#E2E2E2"/>
<path d="M55.8333 44.8572V55.578H72.1785V61.6564H55.8333V74.967H72.694V81.0485H49.3867V38.791H72.694V44.8572H55.8333Z" fill="white"/>
<path d="M55.8333 44.8572V55.578H72.1785V61.6564H55.8333V74.967H72.694V81.0485H49.3867V38.791H72.694V44.8572H55.8333Z" fill="white"/>
<path d="M55.8333 44.8572V55.578H72.1785V61.6564H55.8333V74.967H72.694V81.0485H49.3867V38.791H72.694V44.8572H55.8333Z" fill="white"/>
<path d="M72.6931 44.8572V38.791H49.3828V81.0485H72.6931V74.967H55.8325V61.6564H72.1776V55.5749H55.8325V44.8541H72.6931V44.8572Z" fill="white"/>
<path d="M42.4533 81.1582L42.3428 44.746L42.3275 44.1722V43.936C42.2599 42.4662 41.8795 41.0762 41.2996 39.8182C39.5721 36.1638 35.8594 33.6631 31.536 33.6631C25.7338 33.6631 20.6986 38.3607 20.6986 44.4944C20.6986 48.7441 23.2208 52.4568 26.823 54.2303C22.3371 58.6794 17.8389 63.1561 13.3315 67.6728C12.816 68.1883 12.3097 68.7037 11.8034 69.21C9.03269 71.99 6.28958 74.7607 3.56181 77.5345C2.37129 78.7342 1.1869 79.9401 0.0117188 81.1367C1.71773 81.1429 3.43908 81.1429 5.15122 81.1429C6.60562 81.149 8.05695 81.149 9.49602 81.1582L14.5343 76.0095L19.1 71.3395L35.2242 71.4561L35.1076 81.1337L42.4594 81.1551L42.4533 81.1582ZM26.7371 44.4944C26.7371 41.8249 28.8328 39.7139 31.5299 39.7139C34.227 39.7139 36.338 41.8249 36.338 44.4944C36.338 44.5987 36.338 44.6785 36.3227 44.7521C36.2061 47.2436 34.2208 49.1706 31.7723 49.2964C31.6925 49.3025 31.6035 49.3025 31.5299 49.3025C28.8328 49.3025 26.7371 47.1853 26.7371 44.4944ZM24.7028 65.62L35.4022 54.7151L35.3224 65.6937L24.7028 65.62Z" fill="white"/>
<path d="M55.8333 44.8572V55.578H72.1785V61.6564H55.8333V74.967H72.694V81.0485H49.3867V38.791H72.694V44.8572H55.8333Z" fill="white"/>
<path d="M55.8333 44.8572V55.578H72.1785V61.6564H55.8333V74.967H72.694V81.0485H49.3867V38.791H72.694V44.8572H55.8333Z" fill="white"/>
<path d="M117.557 77.8781C114.204 74.4815 110.838 71.0848 107.447 67.6728L107.211 67.4365C102.777 63.0027 98.3586 58.5966 93.9371 54.2303C97.5394 52.4568 100.055 48.7441 100.055 44.4944C100.055 38.3607 95.0264 33.6631 89.2241 33.6631C84.9008 33.6631 81.1881 36.1638 79.4606 39.8182C78.8807 41.0762 78.5186 42.4662 78.4327 43.936V44.1722L78.4174 44.746L78.3008 81.1582L85.6526 81.1367L85.5636 71.4591L101.66 71.3425L104.888 74.6379L111.276 81.1613C112.961 81.1551 114.636 81.1459 116.321 81.1459C117.8 81.1459 119.276 81.1398 120.755 81.1398C119.687 80.0505 118.622 78.9643 117.557 77.8812V77.8781ZM84.4314 44.4944C84.4314 41.8249 86.5639 39.7139 89.2241 39.7139C91.8844 39.7139 94.0415 41.8249 94.0415 44.4944C94.0415 47.1639 91.9243 49.3025 89.2241 49.3025C89.1444 49.3025 89.0615 49.3025 88.9817 49.2964C86.527 49.1706 84.5418 47.2436 84.4314 44.7521V44.4944ZM85.4378 65.6937L85.3703 54.7151L96.0482 65.62L85.4378 65.6937Z" fill="white"/>
<path d="M14.875 125.68L21.3983 114.33L23.3099 115.432L17.8298 124.965L21.1038 126.846L20.0605 128.659L14.875 125.68Z" fill="white"/>
<path d="M23.1465 115.475L17.6664 125.008L20.9404 126.889L20.0198 128.491L15.043 125.631L21.4436 114.493L23.1465 115.472V115.475Z" fill="white"/>
<path d="M26.75 131.811L31.4016 119.58L38.2502 122.185L37.5077 124.14L32.721 122.32L31.6502 125.134L36.2926 126.898L35.5501 128.853L30.9076 127.088L29.5545 130.642L34.3411 132.461L33.5986 134.416L26.75 131.811Z" fill="white"/>
<path d="M37.4377 123.984L32.6511 122.164L31.4943 125.205L36.1367 126.969L35.4801 128.697L30.8377 126.933L29.4017 130.713L34.1883 132.532L33.5317 134.26L26.9102 131.741L31.4759 119.737L38.0974 122.256L37.4408 123.984H37.4377Z" fill="white"/>
<path d="M40.9682 127.435L39.072 136.023L36.918 135.548L39.9679 121.743L46.9607 133.289L48.8416 124.778L50.9987 125.253L47.9641 138.981L40.9682 127.435Z" fill="white"/>
<path d="M37.0625 135.453L40.0204 122.062L47.0163 133.609L48.937 124.919L50.8548 125.343L47.9122 138.656L40.9164 127.11L38.9802 135.873L37.0625 135.45V135.453Z" fill="white"/>
<path d="M56.1133 138.715C55.9108 138.715 55.7206 138.705 55.5518 138.696L52.2227 138.463L53.137 125.41L55.199 125.554C56.7485 125.665 57.8838 125.916 58.7429 126.84C59.4057 127.561 59.691 128.442 59.6174 129.537C59.5898 129.936 59.5039 130.531 59.105 131.09C58.8933 131.403 58.6233 131.648 58.3011 131.823C58.7276 131.998 59.2431 132.296 59.6634 132.796C60.2127 133.462 60.4428 134.293 60.3691 135.342C60.2986 136.349 59.9764 137.067 59.3259 137.668C58.5772 138.356 57.4696 138.718 56.1164 138.718L56.1133 138.715ZM55.6377 136.604C55.7451 136.613 55.8648 136.616 55.9937 136.616C56.3803 136.616 57.0952 136.57 57.5371 136.263C57.9206 135.996 58.1814 135.505 58.2182 134.977C58.252 134.489 58.1047 134.008 57.8224 133.686C57.3622 133.176 56.6411 133.06 55.9292 133.01L54.8216 132.934L54.57 136.533L55.6408 136.607L55.6377 136.604ZM55.426 131.108C55.5211 131.114 55.6255 131.12 55.7329 131.12C56.2637 131.12 56.6687 131.001 56.9694 130.749C57.4113 130.381 57.5002 129.807 57.5279 129.408C57.5524 129.043 57.5309 128.62 57.1842 128.236C56.8221 127.84 56.3465 127.73 55.7421 127.687L55.1898 127.647L54.9504 131.074L55.426 131.108Z" fill="white"/>
<path d="M55.1867 125.674C56.8375 125.791 57.8623 126.073 58.6509 126.92C59.2953 127.622 59.5653 128.469 59.4916 129.528C59.4579 130.028 59.3444 130.54 59.0007 131.019C58.6785 131.498 58.2766 131.722 57.9789 131.835C58.206 131.909 58.9792 132.176 59.5653 132.872C60.2066 133.652 60.2986 134.545 60.2434 135.333C60.1789 136.254 59.8967 136.969 59.237 137.579C58.1446 138.583 56.5368 138.644 55.558 138.577L52.3516 138.353L53.2475 125.539L55.1867 125.674ZM54.438 136.643L55.6286 136.726C56.1839 136.766 57.0768 136.732 57.6046 136.361C58.0096 136.082 58.298 135.56 58.3379 134.983C58.3748 134.465 58.2183 133.953 57.9145 133.603C57.4113 133.047 56.6289 132.934 55.9385 132.885L54.7081 132.799L54.438 136.64V136.643ZM54.8216 131.188L55.4169 131.231C55.8986 131.265 56.5552 131.252 57.0462 130.841C57.5187 130.448 57.6169 129.859 57.6476 129.417C57.6752 129.034 57.6476 128.568 57.2732 128.156C56.8621 127.702 56.3067 127.607 55.7513 127.567L55.0793 127.521L54.8216 131.191V131.188Z" fill="white"/>
<path d="M62.6758 125.926L69.9969 125.582L70.0951 127.672L64.9771 127.911L65.1182 130.921L70.0828 130.688L70.181 132.777L65.2164 133.011L65.3943 136.809L70.5124 136.567L70.6106 138.656L63.2895 139L62.6758 125.926Z" fill="white"/>
<path d="M69.9701 127.558L64.8521 127.797L65.0055 131.05L69.9701 130.817L70.0561 132.664L65.0945 132.897L65.2848 136.938L70.4028 136.699L70.4887 138.546L63.41 138.877L62.8086 126.045L69.8873 125.714L69.9732 127.561L69.9701 127.558Z" fill="white"/>
<path d="M71.6953 125.395L74.0764 124.996C74.7637 124.879 75.3129 124.827 75.8008 124.827C76.5004 124.827 77.0741 124.941 77.6111 125.186C79.1698 125.892 79.5779 127.392 79.6792 128.006C79.9799 129.792 79.1698 131.335 77.5559 132.068L82.456 136.858L79.8234 137.3L75.3282 132.725L75.1687 132.753L76.0401 137.935L73.8646 138.3L71.6984 125.395H71.6953ZM74.8465 130.841L75.3344 130.758C76.2948 130.596 77.8689 130.074 77.5835 128.374C77.4178 127.383 76.7581 126.88 75.6259 126.88C75.362 126.88 75.0797 126.907 74.7545 126.96L74.2083 127.052L74.8434 130.838L74.8465 130.841Z" fill="white"/>
<path d="M74.0934 125.116C75.6307 124.858 76.6494 124.882 77.5607 125.297C79.104 125.993 79.4692 127.475 79.5612 128.028C79.8681 129.85 78.969 131.369 77.3428 132.032L82.2 136.782L79.865 137.174L75.3668 132.599L75.0262 132.658L75.8945 137.84L73.9584 138.165L71.832 125.499L74.0934 125.119V125.116ZM74.747 130.979L75.3545 130.878C75.8853 130.789 78.0424 130.369 77.7018 128.356C77.4011 126.57 75.6828 126.684 74.7347 126.843L74.0689 126.954L74.7439 130.979H74.747Z" fill="white"/>
<path d="M88.6366 135.057C87.7406 135.057 86.8753 134.83 85.9916 134.364C84.4022 133.526 83.1994 132.075 82.6103 130.273C82.0304 128.5 82.1409 126.545 82.9049 125.042C83.6689 123.499 85.1908 122.231 86.9705 121.648C87.7406 121.397 88.5476 121.262 89.3055 121.262C89.7074 121.262 90.0971 121.299 90.4684 121.372C91.7387 121.627 92.5978 122.17 93.098 122.581L93.1869 122.655L91.9044 124.373L91.8062 124.302C91.2232 123.873 90.5113 123.545 89.8977 123.422C89.6369 123.364 89.373 123.336 89.103 123.336C88.6396 123.336 88.1579 123.422 87.624 123.594C86.0438 124.109 85.2644 125.106 84.887 125.849C84.3623 126.886 84.2948 128.325 84.7121 129.605C85.1049 130.807 85.961 131.866 87.0011 132.437C87.5903 132.759 88.1947 132.915 88.8452 132.915C89.3269 132.915 89.824 132.829 90.361 132.655C91.4349 132.305 92.1683 131.697 92.6653 130.743C93.0427 130.025 93.1624 129.307 93.0305 128.552L90.0051 129.54L89.3668 127.589L94.6321 125.867L94.6997 126.076C95.3931 128.193 95.3225 130.138 94.4941 131.703C93.7423 133.13 92.5272 134.103 90.7783 134.677C90.002 134.928 89.2993 135.054 88.6304 135.054L88.6366 135.057Z" fill="white"/>
<path d="M89.5276 127.671L94.5627 126.026L94.5934 126.118C95.2746 128.205 95.2102 130.11 94.397 131.654C93.5348 133.292 92.1418 134.115 90.7518 134.569C88.9753 135.149 87.5454 135.05 86.0511 134.262C84.4617 133.424 83.3049 131.997 82.7312 130.242C82.1083 128.34 82.3384 126.441 83.0165 125.103C83.713 123.7 85.1275 122.387 87.0115 121.77C88.11 121.411 89.322 121.28 90.4481 121.497C91.6417 121.737 92.4977 122.246 93.0224 122.682L91.881 124.21C91.3471 123.817 90.6168 123.449 89.9264 123.311C89.1164 123.13 88.3432 123.24 87.5914 123.486C85.999 124.007 85.1889 125.001 84.7839 125.802C84.2408 126.87 84.1733 128.334 84.6029 129.65C85.0048 130.877 85.8639 131.954 86.9501 132.55C88.0854 133.173 89.2361 133.16 90.4082 132.777C91.4698 132.43 92.2461 131.832 92.7831 130.807C93.2464 129.926 93.2863 129.122 93.1329 128.404L90.0952 129.398L89.5337 127.677L89.5276 127.671Z" fill="white"/>
<path d="M108.031 111.149L109.783 109.802L116.485 118.519L119.479 116.218L120.753 117.878L116.012 121.523L108.031 111.149Z" fill="white"/>
<path d="M109.758 109.974L116.462 118.691L119.454 116.39L120.58 117.856L116.03 121.354L108.199 111.173L109.758 109.977V109.974Z" fill="white"/>
<path d="M11.9089 123.825L18.4507 113.831L18.5519 113.668L18.5949 113.604C18.8434 113.19 18.9876 112.739 19.0582 112.291C19.2423 110.977 18.6777 109.624 17.4933 108.842C15.9039 107.795 13.6794 108.173 12.5717 109.851C11.8046 111.014 11.82 112.487 12.4889 113.622C10.4576 114.03 8.42021 114.448 6.36748 114.868C4.33009 115.291 2.30191 115.715 0.289062 116.147C1.15127 116.721 2.01962 117.295 2.88183 117.869L7.28492 116.915L11.6788 119.857L9.90223 122.484L11.912 123.821L11.9089 123.825ZM14.2225 110.947C14.7042 110.216 15.6585 110.017 16.3979 110.505C17.1282 110.987 17.3338 111.953 16.8521 112.68C16.8337 112.708 16.8183 112.729 16.7999 112.751C16.3212 113.411 15.4283 113.579 14.738 113.171C14.7134 113.162 14.6889 113.147 14.6674 113.131C13.9279 112.643 13.7377 111.686 14.2225 110.95V110.947ZM9.85314 116.365L14.7533 115.307L12.7497 118.298L9.8562 116.365H9.85314Z" fill="white"/>
<path d="M113.158 123.395L106.708 113.34L106.601 113.183L106.561 113.119C106.285 112.723 105.932 112.407 105.551 112.162C104.428 111.456 102.962 111.419 101.765 112.183C100.16 113.205 99.5958 115.389 100.679 117.086C101.428 118.261 102.778 118.847 104.088 118.703C103.631 120.722 103.177 122.757 102.726 124.8C102.278 126.834 101.839 128.856 101.412 130.872C102.29 130.32 103.167 129.762 104.042 129.209L104.968 124.8L109.448 121.993L111.121 124.69L113.161 123.401L113.158 123.395ZM102.345 116.022C101.876 115.285 102.084 114.331 102.83 113.855C103.566 113.386 104.533 113.591 105.002 114.328C105.021 114.355 105.033 114.377 105.045 114.404C105.45 115.11 105.242 115.997 104.585 116.46C104.563 116.479 104.542 116.494 104.52 116.509C103.775 116.985 102.821 116.77 102.345 116.025V116.022ZM105.505 122.226L106.543 117.322L108.454 120.372L105.505 122.226Z" fill="white"/>
</svg>
