<?xml version="1.0" encoding="UTF-8"?>
<svg id="Layer_2" data-name="Layer 2" xmlns="http://www.w3.org/2000/svg" viewBox="0 0 393.55 453.01">
  <defs>
    <style>
      .cls-1 {
        fill: #231f20;
      }
    </style>
  </defs>
  <g id="Layer_1-2" data-name="Layer 1">
    <g>
      <path d="M362.7,271.3l-2.88.02-20.94-21.4c-6.09,13.16-14.47,26.5-25.93,39.18-5.54,6.13-51.12,55.07-119.87,53.42-56.89-1.37-113.93-37-142.42-88.5l-16.92,17.3-2.88-.02c-3.52-.02-7.07-.05-10.64-.05,34.25,63.84,107.05,109.33,179.16,110.64,60.89,1.15,128.45-29.02,166.07-90.51,3.98-6.49,7.55-13.23,10.71-20.13-4.48,0-8.99.02-13.47.05ZM373.99,109.33c-28.09-54.42-79.66-82.51-108.2-90.92-7.02-2.06-7.31-1.37-42.18-9.66-28.3-6.73-39.21-11.43-54.16-7.05-7.86,2.3-16.92,5.39-24.68,8.12-6.81,2.4-16.68,5.68-19.58,12.75C54.9,53.01,5.03,114.46.36,182.88c-1.49,21.76,1.7,42.9,8.6,62.74,8.27-8.36,17.23-17.4,27.34-27.56-3.02-11.89-4.55-24.28-4.34-37,.91-58.28,38.13-112.46,94.2-141.27.46-.05,2.78,2.3,3.38,2.73,8.53,6.16,27.63,11.5,38.2,14.76,16.34,5.08,25.86,2.09,41.67-2.23,3.64-1.01,11.22-4.07,14.31-4.36,2.49-.22,11.67,2.09,14.62,2.8,102.95,25.02,114.65,101.9,114.65,101.9.77,5.06,3.79,27.82-1.84,56.53,1.08,1.08,2.13,2.16,3.21,3.21l.62.6c10.98,11.02,21.04,21.21,30.48,30.79,13.44-44.98,10.45-94.68-11.48-137.2ZM154.62,13.64c.1-.1.31-1.85.79-2.61.98-1.49,3.02-1.99,4.65-1.41.93.34,1.56,1.34,2.16,1.41,1.03.1,3.09-1.17,3.55-1.13.46.07.93,1.56.7,1.97-.43.69-13.54,4.19-15.34,4.77l-.58-1.63c.05-.53,3.81-1.05,4.07-1.37ZM166.19,49.49c-.43.29-3.38-1.13-4-1.08-.19.02-1.08,1.03-1.82,1.32-2.35.91-4.48.22-5.42-2.13-.19-.48-.19-1.37-.36-1.58-.29-.43-3.98-.98-4.03-1.7,0-.19.7-1.25.7-1.63l15.22,4.74c.22.22-.17,1.65-.29,2.06Z"/>
      <g>
        <polygon class="cls-1" points="181.96 146.19 181.96 181.13 235.23 181.13 235.23 200.94 181.96 200.94 181.96 244.32 236.91 244.32 236.91 264.14 160.95 264.14 160.95 126.42 236.91 126.42 236.91 146.19 181.96 146.19"/>
        <polygon class="cls-1" points="181.96 146.19 181.96 181.13 235.23 181.13 235.23 200.94 181.96 200.94 181.96 244.32 236.91 244.32 236.91 264.14 160.95 264.14 160.95 126.42 236.91 126.42 236.91 146.19 181.96 146.19"/>
        <g>
          <polygon class="cls-1" points="181.96 146.19 181.96 181.13 235.23 181.13 235.23 200.94 181.96 200.94 181.96 244.32 236.91 244.32 236.91 264.14 160.95 264.14 160.95 126.42 236.91 126.42 236.91 146.19 181.96 146.19"/>
          <path class="cls-1" d="M236.91,146.19v-19.77h-75.97v137.72h75.97v-19.82h-54.95v-43.38h53.27v-19.82h-53.27v-34.94h54.95Z"/>
        </g>
        <path class="cls-1" d="M138.35,264.5l-.36-118.67-.05-1.87v-.77c-.22-4.79-1.46-9.32-3.35-13.42-5.63-11.91-17.73-20.06-31.82-20.06-18.91,0-35.32,15.31-35.32,35.3,0,13.85,8.22,25.95,19.96,31.73-14.62,14.5-29.28,29.09-43.97,43.81-1.68,1.68-3.33,3.36-4.98,5.01-9.03,9.06-17.97,18.09-26.86,27.13-3.88,3.91-7.74,7.84-11.57,11.74,5.56.02,11.17.02,16.75.02,4.74.02,9.47.02,14.16.05l16.42-16.78,14.88-15.22,52.55.38-.38,31.54,23.96.07ZM87.13,145.01c0-8.7,6.83-15.58,15.62-15.58s15.67,6.88,15.67,15.58c0,.34,0,.6-.05.84-.38,8.12-6.85,14.4-14.83,14.81-.26.02-.55.02-.79.02-8.79,0-15.62-6.9-15.62-15.67ZM80.5,213.86l34.87-35.54-.26,35.78-34.61-.24Z"/>
        <polygon class="cls-1" points="181.96 146.19 181.96 181.13 235.23 181.13 235.23 200.94 181.96 200.94 181.96 244.32 236.91 244.32 236.91 264.14 160.95 264.14 160.95 126.42 236.91 126.42 236.91 146.19 181.96 146.19"/>
        <polygon class="cls-1" points="181.96 146.19 181.96 181.13 235.23 181.13 235.23 200.94 181.96 200.94 181.96 244.32 236.91 244.32 236.91 264.14 160.95 264.14 160.95 126.42 236.91 126.42 236.91 146.19 181.96 146.19"/>
        <path class="cls-1" d="M383.12,253.81c-10.93-11.07-21.9-22.14-32.95-33.26l-.77-.77c-14.45-14.45-28.85-28.81-43.26-43.04,11.74-5.78,19.94-17.88,19.94-31.73,0-19.99-16.39-35.3-35.3-35.3-14.09,0-26.19,8.15-31.82,20.06-1.89,4.1-3.07,8.63-3.35,13.42v.77l-.05,1.87-.38,118.67,23.96-.07-.29-31.54,52.46-.38,10.52,10.74,20.82,21.26c5.49-.02,10.95-.05,16.44-.05,4.82,0,9.63-.02,14.45-.02-3.48-3.55-6.95-7.09-10.42-10.62ZM275.16,145.01c0-8.7,6.95-15.58,15.62-15.58s15.7,6.88,15.7,15.58-6.9,15.67-15.7,15.67c-.26,0-.53,0-.79-.02-8-.41-14.47-6.69-14.83-14.81v-.84ZM278.44,214.1l-.22-35.78,34.8,35.54-34.58.24Z"/>
      </g>
      <g>
        <polygon class="cls-1" points="48.48 409.6 69.74 372.61 75.97 376.2 58.11 407.27 68.78 413.4 65.38 419.31 48.48 409.6"/>
        <path class="cls-1" d="M75.43,376.34l-17.86,31.07,10.67,6.13-3,5.22-16.22-9.32,20.86-36.3,5.55,3.19Z"/>
        <polygon class="cls-1" points="87.18 429.58 102.34 389.72 124.66 398.21 122.24 404.58 106.64 398.65 103.15 407.82 118.28 413.57 115.86 419.94 100.73 414.19 96.32 425.77 111.92 431.7 109.5 438.07 87.18 429.58"/>
        <path class="cls-1" d="M122.01,404.07l-15.6-5.93-3.77,9.91,15.13,5.75-2.14,5.63-15.13-5.75-4.68,12.32,15.6,5.93-2.14,5.63-21.58-8.21,14.88-39.12,21.58,8.21-2.14,5.63Z"/>
        <polygon class="cls-1" points="133.52 415.32 127.34 443.31 120.32 441.76 130.26 396.77 153.05 434.4 159.18 406.66 166.21 408.21 156.32 452.95 133.52 415.32"/>
        <path class="cls-1" d="M120.79,441.45l9.64-43.64,22.8,37.63,6.26-28.32,6.25,1.38-9.59,43.39-22.8-37.63-6.31,28.56-6.25-1.38Z"/>
        <path class="cls-1" d="M182.88,452.08c-.66,0-1.28-.03-1.83-.06l-10.85-.76,2.98-42.54,6.72.47c5.05.36,8.75,1.18,11.55,4.19,2.16,2.35,3.09,5.22,2.85,8.79-.09,1.3-.37,3.24-1.67,5.06-.69,1.02-1.57,1.82-2.62,2.39,1.39.57,3.07,1.54,4.44,3.17,1.79,2.17,2.54,4.88,2.3,8.3-.23,3.28-1.28,5.62-3.4,7.58-2.44,2.24-6.05,3.42-10.46,3.42ZM181.33,445.2c.35.03.74.04,1.16.04,1.26,0,3.59-.15,5.03-1.15,1.25-.87,2.1-2.47,2.22-4.19.11-1.59-.37-3.16-1.29-4.21-1.5-1.66-3.85-2.04-6.17-2.2l-3.61-.25-.82,11.73,3.49.24ZM180.64,427.29c.31.02.65.04,1,.04,1.73,0,3.05-.39,4.03-1.21,1.44-1.2,1.73-3.07,1.82-4.37.08-1.19.01-2.57-1.12-3.82-1.18-1.29-2.73-1.65-4.7-1.79l-1.8-.13-.78,11.17,1.55.11Z"/>
        <path class="cls-1" d="M179.86,409.58c5.38.38,8.72,1.3,11.29,4.06,2.1,2.29,2.98,5.05,2.74,8.5-.11,1.63-.48,3.3-1.6,4.86-1.05,1.56-2.36,2.29-3.33,2.66.74.24,3.26,1.11,5.17,3.38,2.09,2.54,2.39,5.45,2.21,8.02-.21,3-1.13,5.33-3.28,7.32-3.56,3.27-8.8,3.47-11.99,3.25l-10.45-.73,2.92-41.76,6.32.44ZM177.42,445.33l3.88.27c1.81.13,4.72.02,6.44-1.19,1.32-.91,2.26-2.61,2.39-4.49.12-1.69-.39-3.36-1.38-4.5-1.64-1.81-4.19-2.18-6.44-2.34l-4.01-.28-.88,12.52ZM178.67,427.55l1.94.14c1.57.11,3.71.07,5.31-1.27,1.54-1.28,1.86-3.2,1.96-4.64.09-1.25,0-2.77-1.22-4.11-1.34-1.48-3.15-1.79-4.96-1.92l-2.19-.15-.84,11.96Z"/>
        <polygon class="cls-1" points="204.27 410.4 228.13 409.28 228.45 416.09 211.77 416.87 212.23 426.68 228.41 425.92 228.73 432.73 212.55 433.49 213.13 445.87 229.81 445.08 230.13 451.89 206.27 453.01 204.27 410.4"/>
        <path class="cls-1" d="M228.04,415.72l-16.68.78.5,10.6,16.18-.76.28,6.02-16.17.76.62,13.17,16.68-.78.28,6.02-23.07,1.08-1.96-41.82,23.07-1.08.28,6.02Z"/>
        <path class="cls-1" d="M233.66,408.67l7.76-1.3c2.24-.38,4.03-.55,5.62-.55,2.28,0,4.15.37,5.9,1.17,5.08,2.3,6.41,7.19,6.74,9.19.98,5.82-1.66,10.85-6.92,13.24l15.97,15.61-8.58,1.44-14.65-14.91-.52.09,2.84,16.89-7.09,1.19-7.06-42.06ZM243.93,426.42l1.59-.27c3.13-.53,8.26-2.23,7.33-7.77-.54-3.23-2.69-4.87-6.38-4.87-.86,0-1.78.09-2.84.26l-1.78.3,2.07,12.34Z"/>
        <path class="cls-1" d="M241.47,407.76c5.01-.84,8.33-.76,11.3.59,5.03,2.27,6.22,7.1,6.52,8.9,1,5.94-1.93,10.89-7.23,13.05l15.83,15.48-7.61,1.28-14.66-14.91-1.11.19,2.83,16.89-6.31,1.06-6.93-41.28,7.37-1.24ZM243.6,426.87l1.98-.33c1.73-.29,8.76-1.66,7.65-8.22-.98-5.82-6.58-5.45-9.67-4.93l-2.17.36,2.2,13.12Z"/>
        <path class="cls-1" d="M288.88,440.16c-2.92,0-5.74-.74-8.62-2.26-5.18-2.73-9.1-7.46-11.02-13.33-1.89-5.78-1.53-12.15.96-17.05,2.49-5.03,7.45-9.16,13.25-11.06,2.51-.82,5.14-1.26,7.61-1.26,1.31,0,2.58.12,3.79.36,4.14.83,6.94,2.6,8.57,3.94l.29.24-4.18,5.6-.32-.23c-1.9-1.4-4.22-2.47-6.22-2.87-.85-.19-1.71-.28-2.59-.28-1.51,0-3.08.28-4.82.84-5.15,1.68-7.69,4.93-8.92,7.35-1.71,3.38-1.93,8.07-.57,12.24,1.28,3.92,4.07,7.37,7.46,9.23,1.92,1.05,3.89,1.56,6.01,1.56,1.57,0,3.19-.28,4.94-.85,3.5-1.14,5.89-3.12,7.51-6.23,1.23-2.34,1.62-4.68,1.19-7.14l-9.86,3.22-2.08-6.36,17.16-5.61.22.68c2.26,6.9,2.03,13.24-.67,18.34-2.45,4.65-6.41,7.82-12.11,9.69-2.53.82-4.82,1.23-7,1.23Z"/>
        <path class="cls-1" d="M291.78,416.09l16.41-5.36.1.3c2.22,6.8,2.01,13.01-.64,18.04-2.81,5.34-7.35,8.02-11.88,9.5-5.79,1.89-10.45,1.57-15.32-1-5.18-2.73-8.95-7.38-10.82-13.1-2.03-6.2-1.28-12.39.93-16.75,2.27-4.57,6.88-8.85,13.02-10.86,3.58-1.17,7.53-1.6,11.2-.89,3.89.78,6.68,2.44,8.39,3.86l-3.72,4.98c-1.74-1.28-4.12-2.48-6.37-2.93-2.64-.59-5.16-.23-7.61.57-5.19,1.7-7.83,4.94-9.15,7.55-1.77,3.48-1.99,8.25-.59,12.54,1.31,4,4.11,7.51,7.65,9.45,3.7,2.03,7.45,1.99,11.27.74,3.46-1.13,5.99-3.08,7.74-6.42,1.51-2.87,1.64-5.49,1.14-7.83l-9.9,3.24-1.83-5.61Z"/>
        <polygon class="cls-1" points="352.08 362.24 357.79 357.85 379.63 386.26 389.39 378.76 393.54 384.17 378.09 396.05 352.08 362.24"/>
        <path class="cls-1" d="M357.71,358.41l21.85,28.41,9.75-7.5,3.67,4.78-14.83,11.4-25.52-33.18,5.08-3.9Z"/>
        <path class="cls-1" d="M38.82,403.55l21.32-32.57.33-.53.14-.21c.81-1.35,1.28-2.82,1.51-4.28.6-4.28-1.24-8.69-5.1-11.24-5.18-3.41-12.43-2.18-16.04,3.29-2.5,3.79-2.45,8.59-.27,12.29-6.62,1.33-13.26,2.69-19.95,4.06-6.64,1.38-13.25,2.76-19.81,4.17,2.81,1.87,5.64,3.74,8.45,5.61l14.35-3.11,14.32,9.59-5.79,8.56,6.55,4.36ZM46.36,361.58c1.57-2.38,4.68-3.03,7.09-1.44,2.38,1.57,3.05,4.72,1.48,7.09-.06.09-.11.16-.17.23-1.56,2.15-4.47,2.7-6.72,1.37-.08-.03-.16-.08-.23-.13-2.41-1.59-3.03-4.71-1.45-7.11ZM32.12,379.24l15.97-3.45-6.53,9.75-9.43-6.3Z"/>
        <path class="cls-1" d="M368.79,402.15l-21.02-32.77-.35-.51-.13-.21c-.9-1.29-2.05-2.32-3.29-3.12-3.66-2.3-8.44-2.42-12.34.07-5.23,3.33-7.07,10.45-3.54,15.98,2.44,3.83,6.84,5.74,11.11,5.27-1.49,6.58-2.97,13.21-4.44,19.87-1.46,6.63-2.89,13.22-4.28,19.79,2.86-1.8,5.72-3.62,8.57-5.42l3.02-14.37,14.6-9.15,5.45,8.79,6.65-4.2ZM333.55,378.12c-1.53-2.4-.85-5.51,1.58-7.06,2.4-1.53,5.55-.86,7.08,1.54.06.09.1.16.14.25,1.32,2.3.64,5.19-1.5,6.7-.07.06-.14.11-.21.16-2.43,1.55-5.54.85-7.09-1.58ZM343.85,398.34l3.38-15.98,6.23,9.94-9.61,6.04Z"/>
      </g>
    </g>
  </g>
</svg>